# xmcd
#
# Track frame offsets:
#	150
#	11074
#	23001
#	36877
#	51004
#	63355
#	76356
#	91327
#	106577
#	117500
#	129427
#	143303
#	157428
#	169779
#	182780
#	197751
#
# Disc length: 2840 seconds
#
# Revision: 1
# Processed by: cddbd v1.5.2PL0 Copyright (c) Steve Scherf et al.
# Submitted via: audiograbber 1.83.01
#
DISCID=ce0b1610
DTITLE=Presley, Elvis - CDGSA_006
DYEAR=1900
DGENRE=
TTITLE0=Return To Sender
TTITLE1=Jailhouse Rock
TTITLE2=Burning Love
TTITLE3=Don't
TTITLE4=Hound Dog
TTITLE5=In The Ghetto
TTITLE6=Can't Help Falling In Love
TTITLE7=Suspicious Minds
TTITLE8=Return To Sender
TTITLE9=Jailhouse Rock
TTITLE10=Burning Love
TTITLE11=Don't
TTITLE12=Hound Dog
TTITLE13=In The Ghetto
TTITLE14=Can't Help Falling In Love
TTITLE15=Suspicious Minds
EXTD=
EXTT0=
EXTT1=
EXTT2=
EXTT3=
EXTT4=
EXTT5=
EXTT6=
EXTT7=
EXTT8=w/vocals
EXTT9=w/vocals
EXTT10=w/vocals
EXTT11=w/vocals
EXTT12=w/vocals
EXTT13=w/vocals
EXTT14=w/vocals
EXTT15=w/vocals
PLAYORDER=
